<svg width="23" height="23" viewBox="0 0 23 23" fill="none" xmlns="http://www.w3.org/2000/svg">
<g clip-path="url(#clip0_1_311)">
<path d="M2.875 15.3333H4.79167V21.0833C4.79167 21.6126 4.36261 22.0417 3.83333 22.0417C3.30406 22.0417 2.875 21.6126 2.875 21.0833V15.3333Z" fill="white"/>
<path d="M10.5417 12.4583H12.4583V21.0833C12.4583 21.6126 12.0293 22.0417 11.5 22.0417C10.9707 22.0417 10.5417 21.6126 10.5417 21.0833V12.4583Z" fill="white"/>
<path d="M2.875 1.91666C2.875 1.38739 3.30406 0.958328 3.83333 0.958328C4.36261 0.958328 4.79167 1.38739 4.79167 1.91666V10.5417H2.875V1.91666Z" fill="white"/>
<path d="M18.2083 15.3333H20.125V21.0833C20.125 21.6126 19.6959 22.0417 19.1667 22.0417C18.6374 22.0417 18.2083 21.6126 18.2083 21.0833V15.3333Z" fill="white"/>
<path d="M18.2083 1.91666C18.2083 1.38739 18.6374 0.958328 19.1667 0.958328C19.6959 0.958328 20.125 1.38739 20.125 1.91666V10.5417H18.2083V1.91666Z" fill="white"/>
<path d="M10.5417 1.91666C10.5417 1.38739 10.9707 0.958328 11.5 0.958328C12.0293 0.958328 12.4583 1.38739 12.4583 1.91666V7.66666H10.5417V1.91666Z" fill="white"/>
<rect x="15.3333" y="12.4583" width="7.66667" height="4.79167" rx="2" fill="white"/>
<rect x="7.66666" y="5.75" width="7.66667" height="4.79167" rx="2" fill="white"/>
<rect y="12.4583" width="7.66667" height="4.79167" rx="2" fill="white"/>
</g>
<defs>
<clipPath id="clip0_1_311">
<rect width="23" height="23" fill="white"/>
</clipPath>
</defs>
</svg>
